# xmcd
#
# Track frame offsets:
#	150
#	15919
#	28346
#	42000
#	55688
#	69798
#	84711
#	98718
#	114374
#	126039
#	140423
#	152913
#	169997
#	183797
#	195834
#	210916
#	224403
#	236708
#	251986
#	264387
#	279043
#	296388
#	307993
#
# Disc length: 4280 seconds
#
# Revision: 0
# Processed by: cddbd v1.5.1PL0 Copyright (c) Steve Scherf et al.
# Submitted via: dBpowerAMP V4.0
#
DISCID=3210b617
DTITLE=Peão Carreiro e Praiano - Os Maiores Sucessos
DYEAR=1900
DGENRE=Country
TTITLE0=Porta do Mundo
TTITLE1=Quarto Vizinho
TTITLE2=Carreador
TTITLE3=Pai Amigo Irmão
TTITLE4=Chamada à Cobrar
TTITLE5=Estrela de Ouro
TTITLE6=Laço da Saudade
TTITLE7=Pela Porta da Cozinha
TTITLE8=Uma Noite Não é Nada
TTITLE9=Esta Noite Com Você
TTITLE10=Chifre Nele
TTITLE11=Festa de Bravos
TTITLE12=Vou Tomar Um Pingão
TTITLE13=Saudosa Vida de Peão
TTITLE14=Dividindo Prazer
TTITLE15=Paixão Colorida
TTITLE16=Ela Diz Que é 10
TTITLE17=Flôr da Rua
TTITLE18=Corpo à Corpo
TTITLE19=Por Causa Dela
TTITLE20=O Pintinho
TTITLE21=Nave do Amor
TTITLE22=Quem Ama Volta
EXTD=
EXTT0=
EXTT1=
EXTT2=
EXTT3=
EXTT4=
EXTT5=
EXTT6=
EXTT7=
EXTT8=
EXTT9=
EXTT10=
EXTT11=
EXTT12=
EXTT13=
EXTT14=
EXTT15=
EXTT16=
EXTT17=
EXTT18=
EXTT19=
EXTT20=
EXTT21=
EXTT22=
PLAYORDER=
